# xmcd
#
# Track frame offsets: 
#        150
#        18328
#        33483
#        46966
#        60268
#        77081
#        92784
#        111485
#        137319
#        157079
#
# Disc length: 2425 seconds
#
# Revision: 0
# Processed by: cddbd v1.5.2PL0 Copyright (c) Steve Scherf et al.
# Submitted via: ExactAudioCopy v0.99pb4
#
DISCID=7809770a
DTITLE=Tom Larsen Band - Lookin' For Trouble
DYEAR=2007
DGENRE=Blues
TTITLE0=Trouble
TTITLE1=Bodacious
TTITLE2=Rough Rider
TTITLE3=Too Old To Rock and Roll
TTITLE4=Lookin' For Trouble
TTITLE5=Picture On The Wall
TTITLE6=Goin' Out Drinkin'
TTITLE7=Roxanne
TTITLE8=All Night Long
TTITLE9=Bad Muh Fuh
EXTD=
EXTT0=
EXTT1=
EXTT2=
EXTT3=
EXTT4=
EXTT5=
EXTT6=
EXTT7=
EXTT8=
EXTT9=
PLAYORDER=
